# xmcd
#
# Track frame offsets:
#        187
#        17902
#        36640
#        54650
#        72792
#        92380
#        108595
#        129602
#        147870
#        167815
#
# Disc length: 2505 seconds
#
# Revision: 3
# Processed by: cddbd v1.5.1PL0 Copyright (c) Steve Scherf et al.
# Submitted via: ExactAudioCopy v0.95a5
#
DISCID=8d09c70a
DTITLE=Thompson Twins - Close To The Bone
DYEAR=1900
DGENRE=Rock
TTITLE0=Follow Your Heart
TTITLE1=Bush Baby
TTITLE2=Get That Love
TTITLE3=Twentieth Century
TTITLE4=Long Goodbye
TTITLE5=Still Waters
TTITLE6=Savage Moon
TTITLE7=Gold Fever
TTITLE8=Dancing In Your Shoes
TTITLE9=Perfect Day
EXTD=
EXTT0=
EXTT1=
EXTT2=
EXTT3=
EXTT4=
EXTT5=
EXTT6=
EXTT7=
EXTT8=
EXTT9=
PLAYORDER=
